<!DOCTYPE svg PUBLIC "-//W3C//DTD SVG 20010904//EN" "http://www.w3.org/TR/2001/REC-SVG-20010904/DTD/svg10.dtd">
<svg version="1.0" xmlns="http://www.w3.org/2000/svg" width="76px" height="150px" viewBox="0 0 760 1500" preserveAspectRatio="xMidYMid meet">
<g id="layer101" fill="#000000" stroke="none">
 <path d="M26 1493 c-17 -5 -18 -12 -13 -81 6 -91 31 -169 99 -312 l51 -105 3 -160 c2 -88 4 -173 5 -190 1 -16 -5 -46 -12 -66 -11 -31 -21 -38 -68 -55 -64 -22 -71 -37 -50 -113 7 -25 12 -55 11 -66 -3 -23 7 -45 59 -125 20 -30 42 -75 48 -100 27 -102 126 -153 186 -97 26 23 43 102 50 221 2 36 8 53 23 65 12 9 25 34 30 57 18 79 18 79 114 0 48 -39 89 -78 93 -86 3 -8 23 -27 44 -43 38 -26 40 -26 46 -8 7 23 -30 101 -48 101 -8 0 -12 19 -13 54 0 33 -7 64 -17 80 -24 36 -168 155 -189 156 -16 0 -16 3 -3 40 8 22 25 59 39 82 14 24 43 90 65 148 39 103 40 107 42 250 2 92 8 160 17 187 12 38 19 45 63 60 34 12 49 23 49 35 0 16 -12 18 -114 18 l-113 0 -7 -82 c-5 -46 -11 -137 -15 -203 -4 -66 -13 -130 -20 -143 -6 -12 -40 -55 -73 -94 l-62 -71 -32 94 c-17 52 -49 128 -70 169 -72 137 -102 214 -109 276 -5 51 -4 62 9 67 23 9 19 34 -6 41 -26 7 -84 6 -112 -1z m522 -1007 c57 -29 75 -48 70 -74 -2 -17 -13 -10 -68 39 -35 33 -61 59 -57 59 4 0 29 -11 55 -24z"/>
 </g>

</svg>